<svg xmlns="http://www.w3.org/2000/svg" width="1391.386" height="328"><g data-name="WeDrive Logo"><g data-name="Group 2"><path data-name="Path 4" d="M265.28 153.874c-41.231-25.316-69.928-34.717-90.461-33.892l15.008 72.649 21.935 97.965 2.886 13.029 2.309 10.308c65.97-19.956 114.045-81.142 114.045-153.544C331.002 71.825 259.178.001 170.696.001c-1.731 0-3.463.082-5.195.082v23.832c1.731-.083 3.463-.083 5.195-.083a136.471 136.471 0 01126.827 86.008c11.461 34.798-6.35 55.578-32.243 44.034zm-23.749 123.2c-17.647-18.884-28.2-47.663-38.839-76.36-14.678-30.923 75.782-44.859 92.357-.247 9.483 25.233-34.387 64.978-53.518 76.605z" fill="#ec268f" fill-rule="evenodd"/><path data-name="Rectangle 1" fill="#4b4b4d" stroke="#373435" stroke-width="6.945" d="M161 119h10v27h-10z"/><path data-name="Rectangle 2" fill="#4b4b4d" stroke="#373435" stroke-width="6.945" d="M161 155h10v26h-10z"/><path data-name="Rectangle 3" fill="#4b4b4d" stroke="#373435" stroke-width="6.945" d="M161 190h10v27h-10z"/><path data-name="Rectangle 4" fill="#4b4b4d" stroke="#373435" stroke-width="6.945" d="M161 226h10v26h-10z"/><path data-name="Rectangle 5" fill="#4b4b4d" stroke="#373435" stroke-width="6.945" d="M161 261h10v27h-10z"/><path data-name="Rectangle 6" fill="#4b4b4d" stroke="#373435" stroke-width="6.945" d="M161 296h10v27h-10z"/><path data-name="Path 5" d="M65.64 153.874c41.313-25.316 70.01-34.717 90.543-33.892l-15.008 72.649L119.24 290.6l-2.969 13.029-2.309 10.308A160.474 160.474 0 010 160.388C0 71.824 71.742 0 160.306 0c1.732 0 3.463.082 5.2.082v23.832c-1.732-.083-3.463-.083-5.2-.083a136.667 136.667 0 00-126.909 86.008c-11.462 34.799 6.432 55.579 32.243 44.035zm23.831 123.2c17.647-18.884 28.12-47.663 38.757-76.36 14.761-30.923-75.7-44.859-92.357-.247-9.401 25.233 34.386 64.978 53.6 76.605z" fill="#3e4095" fill-rule="evenodd"/></g><g data-name="Group 1"><path data-name="Path 14" d="M551.843 160.642h-11.459l-34.27-98.956-33.307 98.956h-11.459L409.835 1.606h29.023l29.451 94.672 31.807-94.672h12.209l31.914 94.672 29.344-94.672h29.022z" fill="#3e4095"/><path data-name="Path 13" d="M638.835 26.345v36.733h51.834v23.668h-51.834v47.015h71.111V158.5H610.99V1.606h100.133v24.739z" fill="#3e4095"/><path data-name="Path 7" d="M828.296 158.5H793.49V1.713Q826.796.535 835.364.535q34.27 0 54.351 20.08t20.08 53.28q0 84.605-81.499 84.605zm-6.961-132.476v107.095q6.747.643 14.565.643 21.1 0 33.039-15.315t11.943-42.839q0-50.335-46.8-50.335-4.5.001-12.747.751z" fill="#3e4095"/><path data-name="Path 8" d="M1014.659 158.497l-41.874-64.792q-6.319-.107-17.671-.75v65.542h-28.915V1.606q2.356 0 18.1-.8t25.382-.8q59.759 0 59.759 46.265a42.466 42.466 0 01-8.249 25.376 44.545 44.545 0 01-20.777 16.171l46.377 70.679zm-59.545-132.69v43.59q7.711.643 11.78.643 17.456 0 25.542-4.926t8.086-19.17q0-11.566-8.675-16.171t-27.309-4.605a72.947 72.947 0 00-9.423.642z" fill="#3e4095"/><path data-name="Path 9" d="M1052.36 158.499V1.606h27.845v156.893z" fill="#3e4095"/><path data-name="Path 10" d="M1163.006 160.642h-15.314L1089.004 1.606h30.63l36.3 106.024 38.34-106.024h29.986z" fill="#3e4095"/><path data-name="Path 6" d="M1260.503 26.345v36.733h51.834v23.668h-51.834v47.015h71.111V158.5h-98.956V1.606h100.133v24.739z" fill="#3e4095"/><path data-name="Path 11" d="M870.759 199.333c287.535 0 520.626 4.384 520.626 9.792s-233.092 9.792-520.626 9.792-520.626-4.384-520.626-9.792 233.092-9.792 520.626-9.792z" fill="#bdbfc1"/><text transform="translate(436 268)" fill="#707070" font-size="1" font-family="SegoeUI, Segoe UI"><tspan x="0" y="0">A</tspan></text><text data-name="a" transform="translate(410 291)" fill="#707070" font-size="1" font-family="SegoeUI, Segoe UI"><tspan x="0" y="0">a</tspan></text><text data-name="A Friend in Journey" transform="translate(601 315)" fill="#707070" font-size="53" font-family="SegoeUI, Segoe UI" letter-spacing=".049em"><tspan x="0" y="0">A Friend in Journey</tspan></text></g></g></svg>