<?xml version="1.0" encoding="utf-8"?>
<!-- Generator: Adobe Illustrator 25.4.1, SVG Export Plug-In . SVG Version: 6.00 Build 0)  -->
<svg version="1.0" id="Layer_1" xmlns="http://www.w3.org/2000/svg" xmlns:xlink="http://www.w3.org/1999/xlink" x="0px" y="0px"
	 viewBox="0 0 358.4 75" style="enable-background:new 0 0 358.4 75;" xml:space="preserve">
<style type="text/css">
	.st0{font-family:'Poppins-Bold';}
	.st1{font-size:38.8376px;}
	.st2{font-family:'Poppins-Medium';}
	.st3{fill:#9E8C55;}
	.st4{font-family:'Poppins-Light';}
	.st5{font-size:13.3354px;}
	.st6{fill:#594E30;}
	.st7{fill:#FFFFFF;}
</style>
<text transform="matrix(1 0 0 1 149.3583 44.313)"><tspan x="0" y="0" class="st0 st1">SAN</tspan><tspan x="81.7" y="0" class="st2 st1"> </tspan><tspan x="91.8" y="0" class="st3 st4 st1">ROYAL</tspan></text>
<text transform="matrix(1 0 0 1 152.603 61.479)" class="st4 st5">Live life royally at sea</text>
<g>
	<path class="st3" d="M0,46.1c0.6,0.2,1,0.2,1.3,0.3c3.3,2,6.9,2.7,10.7,3c3.5,0.3,7.1,0.3,10.6,0.4c1.6,0,2.9-0.5,4.2-1.5
		c12.6-9,26.5-15.1,41.3-19.1c10-2.7,20.3-4.3,30.6-5.3c10.4-1,20.8-1.2,31.3-1.2c0.1,0,0.2,0,0.7,0.2C120.3,29.8,111,37.5,104.1,48
		c7,3.2,13.4,7,18.4,12.9c-0.7-0.5-1.5-0.9-2.2-1.5c-5.9-4.6-12.8-7-20.1-8.1c-9.4-1.5-18.8-1.1-28.1-0.1
		c-10.8,1.2-21.5,2.6-32.3,3.6c-9,0.8-18.1,0.9-26.9-1.7C8.3,51.8,4,49.9,0.4,46.7C0.3,46.7,0.3,46.5,0,46.1z"/>
	<path class="st6" d="M123.9,70.7c-1-0.7-2-1.5-3-2.2c-5.9-4.2-12.6-6.4-19.7-7.3c-9.8-1.4-19.6-0.9-29.4,0.2
		c-9.7,1.1-19.4,2.5-29.1,3.3c-8.8,0.8-17.7,1.1-26.4-1.1c-5.1-1.3-9.8-3.4-14-6.7c-0.2-0.1-0.3-0.3-0.4-0.4
		c-0.1-0.1-0.1-0.2-0.2-0.5c0.4,0.1,0.8,0.1,1.1,0.3c4.1,2.4,8.6,3,13.1,3.2c8.7,0.5,17.4-0.4,26-1.6C55,56.1,68.1,54,81.3,54.1
		c9.2,0.1,18.2,1.2,26.6,4.9C114.1,61.7,119.6,65.4,123.9,70.7z"/>
	<path class="st3" d="M31.4,40.2c24.2-18.7,50.7-32.1,82-34.5c-0.5,4-0.9,7.8-1.4,11.5c0,0.2-0.1,0.3-0.1,0.5c-0.2,1,0,2.5-0.6,3
		c-0.7,0.5-2,0.2-3.1,0.2c-0.8,0-1.5,0-2.5,0c0.2-2.9,0.3-5.6,0.5-8.7c-2.2,0.2-4.5,0.3-6.7,0.6c-21.2,2.7-40.2,11.1-58.3,21.9
		c-3.2,1.9-6.4,3.9-9.7,5.9C31.6,40.4,31.5,40.3,31.4,40.2z"/>
	<path class="st3" d="M78.2,0c0.2,3.7,0.3,6.9,0.5,10.3c-1.1,0.2-2.1,0.3-3.2,0.4C75.3,8.8,75.2,7,75,5.1c-0.7,0.1-1.3,0.2-1.9,0.3
		c-9,2.4-16.7,7.1-23.6,13.2c-3.1,2.7-6,5.7-9,8.5c-0.8,0.8-1.6,1.5-2.5,2.1C48.5,15.8,60.9,4.8,78.2,0z"/>
	<path class="st7" d="M114.4,28.8c-3.2,2.2-6.1,4.7-8.8,7.5c-2.7,2.8-5.1,5.8-6.6,9.3c-0.1,0.2-0.3,0.3-0.4,0.2l0,0
		c-4.1-0.6-8.4-0.5-12.6-0.4c-4.2,0.2-8.5,0.4-12.7,0.9c-4.2,0.4-8.4,1-12.7,1.6l-6.3,1l-6.3,1l6.2-1.4c2.1-0.4,4.2-0.8,6.3-1.2
		l6.3-1c2.1-0.3,4.2-0.6,6.3-0.8c4.2-0.5,8.5-0.9,12.8-1c4.3-0.1,8.5-0.1,12.8,0.5l-0.5,0.2c1.7-3.6,4.3-6.6,7-9.3
		c1.4-1.4,2.9-2.6,4.4-3.8C111.2,30.9,112.8,29.8,114.4,28.8z"/>
</g>
</svg>
