<?xml version="1.0" encoding="utf-8"?>
<!-- Generator: Adobe Illustrator 25.4.1, SVG Export Plug-In . SVG Version: 6.00 Build 0)  -->
<svg version="1.1" id="Layer_1" xmlns="http://www.w3.org/2000/svg" xmlns:xlink="http://www.w3.org/1999/xlink" x="0px" y="0px"
	 viewBox="0 0 358.4 75" style="enable-background:new 0 0 358.4 75;" xml:space="preserve">
<style type="text/css">
	.st0{enable-background:new    ;}
	.st1{fill:#9E8C55;}
	.st2{fill:#594E30;}
	.st3{fill:#FFFFFF;}
</style>
<g class="st0">
	<path d="M156.3,43.6c-1.6-0.6-2.8-1.6-3.8-2.9c-0.9-1.3-1.4-2.8-1.5-4.6h7.1c0.1,1,0.5,1.8,1,2.3c0.6,0.5,1.4,0.8,2.3,0.8
		c1,0,1.8-0.2,2.3-0.7c0.6-0.5,0.9-1.1,0.9-1.9c0-0.7-0.2-1.2-0.7-1.7c-0.5-0.4-1-0.8-1.7-1.1c-0.7-0.3-1.6-0.6-2.8-1
		c-1.8-0.5-3.2-1.1-4.3-1.6s-2.1-1.3-2.9-2.4c-0.8-1.1-1.2-2.4-1.2-4.2c0-2.5,0.9-4.5,2.8-6c1.8-1.4,4.2-2.2,7.2-2.2
		c3,0,5.4,0.7,7.3,2.2c1.8,1.4,2.8,3.4,3,6H164c-0.1-0.9-0.4-1.6-1-2.1s-1.4-0.8-2.3-0.8c-0.8,0-1.5,0.2-1.9,0.6
		c-0.5,0.4-0.7,1-0.7,1.8c0,0.9,0.4,1.6,1.2,2.1c0.8,0.5,2.1,1,3.9,1.6c1.8,0.6,3.2,1.2,4.3,1.7c1.1,0.5,2.1,1.3,2.9,2.4
		c0.8,1,1.2,2.4,1.2,4c0,1.6-0.4,3-1.2,4.2c-0.8,1.3-1.9,2.3-3.4,3c-1.5,0.8-3.3,1.1-5.3,1.1C159.6,44.6,157.9,44.3,156.3,43.6z"/>
	<path d="M192.6,39.5h-10.2l-1.6,4.8h-7l9.9-27.3h7.7l9.9,27.3h-7L192.6,39.5z M190.9,34.4l-3.4-10l-3.3,10H190.9z"/>
	<path d="M228.7,44.3H222l-11.1-16.8v16.8h-6.6V17h6.6L222,33.9V17h6.6V44.3z"/>
</g>
<g class="st0">
	<path class="st1" d="M258.7,44.3L252,33h-5v11.3h-2.7V17.2h8.2c3,0,5.3,0.7,6.9,2.2c1.6,1.5,2.3,3.4,2.3,5.7c0,2-0.6,3.6-1.7,5
		c-1.1,1.4-2.8,2.3-5,2.7l7,11.5H258.7z M247,30.8h5.5c2.1,0,3.7-0.5,4.8-1.6c1.1-1,1.6-2.4,1.6-4.2c0-1.8-0.5-3.2-1.6-4.1
		c-1-1-2.7-1.5-4.9-1.5H247V30.8z"/>
	<path class="st1" d="M272.4,42.8c-2-1.2-3.7-2.8-4.8-4.9c-1.2-2.1-1.8-4.5-1.8-7.2s0.6-5.1,1.8-7.2c1.2-2.1,2.8-3.8,4.8-4.9
		c2-1.2,4.3-1.8,6.8-1.8c2.5,0,4.8,0.6,6.9,1.8c2,1.2,3.7,2.8,4.8,4.9s1.7,4.5,1.7,7.2s-0.6,5.1-1.7,7.2c-1.2,2.1-2.8,3.8-4.8,4.9
		c-2,1.2-4.3,1.8-6.9,1.8C276.7,44.6,274.5,44,272.4,42.8z M284.7,40.8c1.6-0.9,2.9-2.3,3.8-4c0.9-1.7,1.4-3.8,1.4-6.1
		s-0.5-4.3-1.4-6.1c-0.9-1.7-2.2-3.1-3.8-4c-1.6-0.9-3.4-1.4-5.4-1.4s-3.8,0.5-5.4,1.4c-1.6,0.9-2.9,2.3-3.8,4
		c-0.9,1.7-1.4,3.8-1.4,6.1s0.5,4.3,1.4,6.1c0.9,1.7,2.2,3.1,3.8,4c1.6,0.9,3.4,1.4,5.4,1.4S283.1,41.7,284.7,40.8z"/>
	<path class="st1" d="M315.6,17.2l-8.7,16.6v10.6h-2.7V33.7l-8.8-16.6h3.1l7.1,14.1l7-14.1H315.6z"/>
	<path class="st1" d="M335.3,37.9h-12.4l-2.4,6.4h-2.9l9.9-26.8h3.1l9.9,26.8h-2.9L335.3,37.9z M334.5,35.6l-5.4-14.7l-5.4,14.7
		H334.5z"/>
	<path class="st1" d="M347.6,42.1h9.7v2.2h-12.5V17.2h2.7V42.1z"/>
</g>
<g class="st0">
	<path d="M154.6,60.7h3.3v0.8h-4.3v-9.3h0.9V60.7z"/>
	<path d="M159.3,52.6c-0.1-0.1-0.2-0.3-0.2-0.5c0-0.2,0.1-0.4,0.2-0.5c0.1-0.1,0.3-0.2,0.5-0.2c0.2,0,0.3,0.1,0.5,0.2
		s0.2,0.3,0.2,0.5c0,0.2-0.1,0.4-0.2,0.5c-0.1,0.1-0.3,0.2-0.5,0.2C159.6,52.8,159.4,52.8,159.3,52.6z M160.2,54.2v7.3h-0.9v-7.3
		H160.2z"/>
	<path d="M164.9,60.6l2.5-6.4h1l-2.9,7.3h-1.1l-2.9-7.3h1L164.9,60.6z"/>
	<path d="M176.2,58.2h-6c0,0.6,0.2,1,0.4,1.4c0.2,0.4,0.6,0.7,0.9,0.9s0.8,0.3,1.3,0.3c0.6,0,1.1-0.1,1.5-0.4
		c0.4-0.3,0.7-0.7,0.8-1.2h1c-0.2,0.7-0.6,1.3-1.1,1.7c-0.6,0.4-1.3,0.7-2.2,0.7c-0.7,0-1.3-0.2-1.8-0.5c-0.5-0.3-1-0.7-1.3-1.3
		s-0.5-1.2-0.5-2s0.2-1.4,0.5-2c0.3-0.6,0.7-1,1.3-1.3c0.5-0.3,1.2-0.5,1.9-0.5s1.3,0.2,1.8,0.5c0.5,0.3,0.9,0.7,1.2,1.2
		c0.3,0.5,0.4,1.1,0.4,1.7C176.2,57.8,176.2,58,176.2,58.2z M174.9,56.1c-0.2-0.4-0.5-0.7-0.9-0.9c-0.4-0.2-0.8-0.3-1.3-0.3
		c-0.7,0-1.3,0.2-1.8,0.7c-0.5,0.4-0.8,1.1-0.8,1.9h5.1C175.3,56.9,175.2,56.4,174.9,56.1z"/>
	<path d="M182.5,51.6v9.9h-0.9v-9.9H182.5z"/>
	<path d="M184.6,52.6c-0.1-0.1-0.2-0.3-0.2-0.5c0-0.2,0.1-0.4,0.2-0.5s0.3-0.2,0.5-0.2c0.2,0,0.3,0.1,0.5,0.2
		c0.1,0.1,0.2,0.3,0.2,0.5c0,0.2-0.1,0.4-0.2,0.5c-0.1,0.1-0.3,0.2-0.5,0.2C184.9,52.8,184.8,52.8,184.6,52.6z M185.6,54.2v7.3h-0.9
		v-7.3H185.6z"/>
	<path d="M190.6,55h-1.7v6.5h-0.9V55h-1v-0.8h1v-0.5c0-0.8,0.2-1.4,0.6-1.7c0.4-0.4,1.1-0.6,2-0.6v0.8c-0.6,0-1,0.1-1.3,0.3
		c-0.2,0.2-0.4,0.6-0.4,1.2v0.5h1.7V55z"/>
	<path d="M198.6,58.2h-6c0,0.6,0.2,1,0.4,1.4c0.2,0.4,0.6,0.7,0.9,0.9c0.4,0.2,0.8,0.3,1.3,0.3c0.6,0,1.1-0.1,1.5-0.4
		s0.7-0.7,0.8-1.2h1c-0.2,0.7-0.6,1.3-1.1,1.7c-0.6,0.4-1.3,0.7-2.2,0.7c-0.7,0-1.3-0.2-1.8-0.5s-1-0.7-1.3-1.3s-0.5-1.2-0.5-2
		s0.2-1.4,0.5-2c0.3-0.6,0.7-1,1.3-1.3c0.5-0.3,1.2-0.5,1.9-0.5s1.3,0.2,1.8,0.5c0.5,0.3,0.9,0.7,1.2,1.2c0.3,0.5,0.4,1.1,0.4,1.7
		C198.6,57.8,198.6,58,198.6,58.2z M197.3,56.1c-0.2-0.4-0.5-0.7-0.9-0.9c-0.4-0.2-0.8-0.3-1.3-0.3c-0.7,0-1.3,0.2-1.8,0.7
		s-0.8,1.1-0.8,1.9h5.1C197.7,56.9,197.6,56.4,197.3,56.1z"/>
	<path d="M205.8,54.4c0.4-0.2,0.9-0.4,1.6-0.4v1h-0.3c-0.7,0-1.2,0.2-1.6,0.5c-0.4,0.4-0.6,1-0.6,1.8v4.1H204v-7.3h0.9v1.3
		C205.1,55,205.4,54.7,205.8,54.4z"/>
	<path d="M210.1,61.1c-0.5-0.3-1-0.7-1.3-1.3s-0.5-1.2-0.5-2s0.2-1.4,0.5-2s0.8-1,1.3-1.3c0.6-0.3,1.2-0.5,1.9-0.5s1.3,0.2,1.9,0.5
		s1,0.7,1.3,1.3s0.5,1.2,0.5,2c0,0.7-0.2,1.4-0.5,2c-0.3,0.6-0.8,1-1.3,1.3c-0.6,0.3-1.2,0.5-1.9,0.5S210.7,61.4,210.1,61.1z
		 M213.3,60.4c0.4-0.2,0.7-0.5,1-1c0.3-0.4,0.4-1,0.4-1.6c0-0.6-0.1-1.2-0.4-1.6c-0.2-0.4-0.6-0.8-1-1c-0.4-0.2-0.9-0.3-1.3-0.3
		c-0.5,0-0.9,0.1-1.3,0.3c-0.4,0.2-0.7,0.5-1,1c-0.2,0.4-0.4,1-0.4,1.6c0,0.6,0.1,1.2,0.4,1.6c0.2,0.4,0.6,0.8,1,1s0.8,0.3,1.3,0.3
		C212.5,60.8,212.9,60.7,213.3,60.4z"/>
	<path d="M223.4,54.2L219,64.9h-1l1.4-3.5l-3-7.2h1l2.5,6.2l2.4-6.2H223.4z"/>
	<path d="M224.6,55.9c0.3-0.6,0.7-1,1.2-1.3c0.5-0.3,1.1-0.5,1.8-0.5c0.7,0,1.3,0.2,1.8,0.5c0.5,0.3,0.9,0.7,1.1,1.2v-1.6h0.9v7.3
		h-0.9v-1.6c-0.2,0.5-0.6,0.9-1.1,1.2s-1.1,0.5-1.8,0.5c-0.7,0-1.3-0.2-1.8-0.5c-0.5-0.3-0.9-0.8-1.2-1.3c-0.3-0.6-0.4-1.2-0.4-2
		C224.2,57.1,224.3,56.4,224.6,55.9z M230.2,56.3c-0.2-0.4-0.6-0.8-1-1c-0.4-0.2-0.9-0.4-1.4-0.4c-0.5,0-1,0.1-1.4,0.3
		c-0.4,0.2-0.7,0.6-1,1c-0.2,0.4-0.4,1-0.4,1.6c0,0.6,0.1,1.1,0.4,1.6c0.2,0.4,0.6,0.8,1,1c0.4,0.2,0.9,0.4,1.4,0.4
		c0.5,0,1-0.1,1.4-0.4c0.4-0.2,0.7-0.6,1-1s0.4-1,0.4-1.5S230.4,56.7,230.2,56.3z"/>
	<path d="M234.6,51.6v9.9h-0.9v-9.9H234.6z"/>
	<path d="M237.6,51.6v9.9h-0.9v-9.9H237.6z"/>
	<path d="M245.7,54.2l-4.3,10.7h-1l1.4-3.5l-3-7.2h1l2.5,6.2l2.4-6.2H245.7z"/>
	<path d="M250.7,55.9c0.3-0.6,0.7-1,1.2-1.3s1.1-0.5,1.8-0.5c0.7,0,1.3,0.2,1.8,0.5c0.5,0.3,0.9,0.7,1.1,1.2v-1.6h0.9v7.3h-0.9v-1.6
		c-0.2,0.5-0.6,0.9-1.1,1.2c-0.5,0.3-1.1,0.5-1.8,0.5c-0.7,0-1.3-0.2-1.8-0.5c-0.5-0.3-0.9-0.8-1.2-1.3c-0.3-0.6-0.4-1.2-0.4-2
		C250.2,57.1,250.4,56.4,250.7,55.9z M256.2,56.3c-0.2-0.4-0.6-0.8-1-1c-0.4-0.2-0.9-0.4-1.4-0.4c-0.5,0-1,0.1-1.4,0.3s-0.7,0.6-1,1
		s-0.4,1-0.4,1.6c0,0.6,0.1,1.1,0.4,1.6s0.6,0.8,1,1c0.4,0.2,0.9,0.4,1.4,0.4c0.5,0,1-0.1,1.4-0.4c0.4-0.2,0.7-0.6,1-1
		c0.2-0.4,0.4-1,0.4-1.5S256.5,56.7,256.2,56.3z"/>
	<path d="M260.9,55v4.5c0,0.4,0.1,0.8,0.3,0.9s0.5,0.3,0.9,0.3h0.9v0.8h-1c-0.7,0-1.1-0.2-1.5-0.5s-0.5-0.8-0.5-1.5V55h-1v-0.8h1
		v-1.8h0.9v1.8h2V55H260.9z"/>
	<path d="M268.5,61c-0.5-0.4-0.8-0.9-0.9-1.6h1c0,0.4,0.2,0.7,0.6,1c0.3,0.3,0.8,0.4,1.4,0.4c0.5,0,0.9-0.1,1.2-0.4s0.4-0.5,0.4-0.9
		c0-0.2-0.1-0.5-0.2-0.6c-0.2-0.2-0.4-0.3-0.6-0.4c-0.2-0.1-0.6-0.2-1-0.3c-0.5-0.1-1-0.3-1.3-0.4c-0.3-0.1-0.6-0.4-0.9-0.6
		s-0.4-0.7-0.4-1.1c0-0.4,0.1-0.7,0.3-1c0.2-0.3,0.5-0.5,0.9-0.7c0.4-0.2,0.8-0.3,1.3-0.3c0.8,0,1.4,0.2,1.9,0.6
		c0.5,0.4,0.7,0.9,0.8,1.6h-0.9c0-0.4-0.2-0.8-0.5-1c-0.3-0.3-0.7-0.4-1.3-0.4c-0.5,0-0.9,0.1-1.1,0.3c-0.3,0.2-0.4,0.5-0.4,0.8
		c0,0.3,0.1,0.5,0.3,0.7c0.2,0.2,0.4,0.3,0.6,0.4c0.3,0.1,0.6,0.2,1,0.3c0.5,0.1,0.9,0.3,1.3,0.4c0.3,0.1,0.6,0.3,0.8,0.6
		c0.2,0.3,0.3,0.6,0.3,1c0,0.4-0.1,0.7-0.3,1c-0.2,0.3-0.5,0.5-0.9,0.7c-0.4,0.2-0.8,0.3-1.3,0.3C269.7,61.6,269,61.4,268.5,61z"/>
	<path d="M281.4,58.2h-6c0,0.6,0.2,1,0.4,1.4c0.2,0.4,0.6,0.7,0.9,0.9c0.4,0.2,0.8,0.3,1.3,0.3c0.6,0,1.1-0.1,1.5-0.4
		s0.7-0.7,0.8-1.2h1c-0.2,0.7-0.6,1.3-1.1,1.7c-0.6,0.4-1.3,0.7-2.2,0.7c-0.7,0-1.3-0.2-1.8-0.5s-1-0.7-1.3-1.3s-0.5-1.2-0.5-2
		s0.2-1.4,0.5-2c0.3-0.6,0.7-1,1.3-1.3c0.5-0.3,1.2-0.5,1.9-0.5s1.3,0.2,1.8,0.5c0.5,0.3,0.9,0.7,1.2,1.2c0.3,0.5,0.4,1.1,0.4,1.7
		C281.4,57.8,281.4,58,281.4,58.2z M280.2,56.1c-0.2-0.4-0.5-0.7-0.9-0.9c-0.4-0.2-0.8-0.3-1.3-0.3c-0.7,0-1.3,0.2-1.8,0.7
		s-0.8,1.1-0.8,1.9h5.1C280.5,56.9,280.4,56.4,280.2,56.1z"/>
	<path d="M283.2,55.9c0.3-0.6,0.7-1,1.2-1.3s1.1-0.5,1.8-0.5c0.7,0,1.3,0.2,1.8,0.5c0.5,0.3,0.9,0.7,1.1,1.2v-1.6h0.9v7.3h-0.9v-1.6
		c-0.2,0.5-0.6,0.9-1.1,1.2c-0.5,0.3-1.1,0.5-1.8,0.5c-0.7,0-1.3-0.2-1.8-0.5c-0.5-0.3-0.9-0.8-1.2-1.3c-0.3-0.6-0.4-1.2-0.4-2
		C282.7,57.1,282.9,56.4,283.2,55.9z M288.7,56.3c-0.2-0.4-0.6-0.8-1-1c-0.4-0.2-0.9-0.4-1.4-0.4c-0.5,0-1,0.1-1.4,0.3s-0.7,0.6-1,1
		s-0.4,1-0.4,1.6c0,0.6,0.1,1.1,0.4,1.6s0.6,0.8,1,1c0.4,0.2,0.9,0.4,1.4,0.4c0.5,0,1-0.1,1.4-0.4c0.4-0.2,0.7-0.6,1-1
		c0.2-0.4,0.4-1,0.4-1.5S289,56.7,288.7,56.3z"/>
</g>
<g>
	<path class="st1" d="M0,46.1c0.6,0.2,1,0.2,1.3,0.3c3.3,2,6.9,2.7,10.7,3c3.5,0.3,7.1,0.3,10.6,0.4c1.6,0,2.9-0.5,4.2-1.5
		c12.6-9,26.5-15.1,41.3-19.1c10-2.7,20.3-4.3,30.6-5.3c10.4-1,20.8-1.2,31.3-1.2c0.1,0,0.2,0,0.7,0.2C120.3,29.8,111,37.5,104.1,48
		c7,3.2,13.4,7,18.4,12.9c-0.7-0.5-1.5-0.9-2.2-1.5c-5.9-4.6-12.8-7-20.1-8.1c-9.4-1.5-18.8-1.1-28.1-0.1
		c-10.8,1.2-21.5,2.6-32.3,3.6c-9,0.8-18.1,0.9-26.9-1.7C8.3,51.8,4,49.9,0.4,46.7C0.3,46.7,0.3,46.5,0,46.1z"/>
	<path class="st2" d="M123.9,70.7c-1-0.7-2-1.5-3-2.2c-5.9-4.2-12.6-6.4-19.7-7.3c-9.8-1.4-19.6-0.9-29.4,0.2
		c-9.7,1.1-19.4,2.5-29.1,3.3c-8.8,0.8-17.7,1.1-26.4-1.1c-5.1-1.3-9.8-3.4-14-6.7c-0.2-0.1-0.3-0.3-0.4-0.4
		c-0.1-0.1-0.1-0.2-0.2-0.5c0.4,0.1,0.8,0.1,1.1,0.3c4.1,2.4,8.6,3,13.1,3.2c8.7,0.5,17.4-0.4,26-1.6C55,56.1,68.1,54,81.3,54.1
		c9.2,0.1,18.2,1.2,26.6,4.9C114.1,61.7,119.6,65.4,123.9,70.7z"/>
	<path class="st1" d="M31.4,40.2c24.2-18.7,50.7-32.1,82-34.5c-0.5,4-0.9,7.8-1.4,11.5c0,0.2-0.1,0.3-0.1,0.5c-0.2,1,0,2.5-0.6,3
		c-0.7,0.5-2,0.2-3.1,0.2c-0.8,0-1.5,0-2.5,0c0.2-2.9,0.3-5.6,0.5-8.7c-2.2,0.2-4.5,0.3-6.7,0.6c-21.2,2.7-40.2,11.1-58.3,21.9
		c-3.2,1.9-6.4,3.9-9.7,5.9C31.6,40.4,31.5,40.3,31.4,40.2z"/>
	<path class="st1" d="M78.2,0c0.2,3.7,0.3,6.9,0.5,10.3c-1.1,0.2-2.1,0.3-3.2,0.4C75.3,8.8,75.2,7,75,5.1c-0.7,0.1-1.3,0.2-1.9,0.3
		c-9,2.4-16.7,7.1-23.6,13.2c-3.1,2.7-6,5.7-9,8.5c-0.8,0.8-1.6,1.5-2.5,2.1C48.5,15.8,60.9,4.8,78.2,0z"/>
	<path class="st3" d="M114.4,28.8c-3.2,2.2-6.1,4.7-8.8,7.5c-2.7,2.8-5.1,5.8-6.6,9.3c-0.1,0.2-0.3,0.3-0.4,0.2l0,0
		c-4.1-0.6-8.4-0.5-12.6-0.4c-4.2,0.2-8.5,0.4-12.7,0.9c-4.2,0.4-8.4,1-12.7,1.6l-6.3,1l-6.3,1l6.2-1.4c2.1-0.4,4.2-0.8,6.3-1.2
		l6.3-1c2.1-0.3,4.2-0.6,6.3-0.8c4.2-0.5,8.5-0.9,12.8-1s8.5-0.1,12.8,0.5l-0.5,0.2c1.7-3.6,4.3-6.6,7-9.3c1.4-1.4,2.9-2.6,4.4-3.8
		C111.2,30.9,112.8,29.8,114.4,28.8z"/>
</g>
</svg>
