<?xml version="1.0" encoding="utf-8"?>
<!-- Generator: Adobe Illustrator 25.4.1, SVG Export Plug-In . SVG Version: 6.00 Build 0)  -->
<svg version="1.0" id="Layer_1" xmlns="http://www.w3.org/2000/svg" xmlns:xlink="http://www.w3.org/1999/xlink" x="0px" y="0px"
	 viewBox="0 0 766 490" style="enable-background:new 0 0 766 490;" xml:space="preserve">
<style type="text/css">
	.st0{fill:#9E8C55;}
	.st1{fill:#594E30;}
	.st2{fill:#FFFFFF;}
</style>
<g>
	<path class="st0" d="M108.3,171.7c2.3,0.6,3.8,0.6,4.8,1.2c12.1,7.5,25.7,9.9,39.5,11c13,1,26.1,1,39.2,1.3
		c5.9,0.2,10.8-2,15.6-5.5c46.5-33.3,98.2-55.8,153.2-70.7c37.2-10.1,75.1-16.1,113.4-19.8c38.6-3.7,77.2-4.6,116-4.4
		c0.4,0,0.7,0.2,2.7,0.6c-38.8,25.6-73.3,54.2-98.9,93.2c25.9,11.7,49.5,26.1,68.1,47.7c-2.7-1.8-5.5-3.5-8.1-5.5
		c-22-17-47.3-25.8-74.4-30c-34.8-5.4-69.5-4.2-104.3-0.2c-39.9,4.5-79.7,9.7-119.7,13.5c-33.5,3.1-67.1,3.4-99.8-6.4
		c-16.8-5-32.5-12.2-45.9-23.8C109.4,173.8,109.3,173.3,108.3,171.7z"/>
	<path class="st1" d="M567.5,262.9c-3.8-2.7-7.5-5.5-11.3-8.2c-21.9-15.7-46.8-23.6-73.2-27.2c-36.3-5-72.6-3.3-108.9,0.8
		c-35.9,4.1-71.8,9.1-107.8,12.4c-32.7,3-65.5,4-97.8-4.2c-18.9-4.8-36.4-12.7-51.7-24.9c-0.6-0.5-1.1-1-1.6-1.5
		c-0.2-0.3-0.3-0.7-0.6-1.7c1.7,0.4,3.1,0.5,4.2,1.2c15,8.8,31.8,11,48.6,12c32.3,1.9,64.3-1.6,96.3-6.1
		c48.4-6.8,96.7-14.6,145.8-14.1c34,0.3,67.3,4.4,98.7,18.2C531,229.6,551.4,243.3,567.5,262.9z"/>
	<path class="st0" d="M224.8,149.9C314.6,80.5,412.6,30.8,528.7,22c-1.8,14.7-3.4,28.7-5.1,42.8c-0.1,0.6-0.2,1.1-0.3,1.7
		c-0.6,3.8,0.1,9.2-2.1,11.1c-2.4,2-7.6,0.7-11.6,0.8c-2.8,0.1-5.7,0-9.3,0c0.7-10.6,1.3-20.9,2-32.3c-8.3,0.7-16.6,1.1-24.7,2.1
		c-78.4,10.2-149,41.3-216.2,81.2c-12,7.1-23.8,14.5-35.8,21.8C225.4,150.7,225.1,150.3,224.8,149.9z"/>
	<path class="st0" d="M397.9,0.9c0.6,13.5,1.2,25.6,1.8,38.1c-4.1,0.6-7.7,1.1-11.7,1.6c-0.6-7.1-1.2-13.6-1.8-20.8
		c-2.7,0.5-4.9,0.7-7,1.2c-33.3,8.9-61.8,26.4-87.4,49c-11.5,10.1-22.4,21.1-33.5,31.7c-2.9,2.8-5.9,5.5-9.4,7.6
		C288,59.3,333.9,18.8,397.9,0.9z"/>
	<g>
		<path d="M20.2,391.1c-5.9-2.4-10.5-5.9-14-10.7c-3.5-4.7-5.4-10.4-5.5-17h26.2c0.4,3.7,1.7,6.6,3.9,8.6s5.1,2.9,8.6,2.9
			c3.6,0,6.5-0.8,8.6-2.5c2.1-1.7,3.2-4,3.2-7c0-2.5-0.8-4.6-2.5-6.2c-1.7-1.6-3.7-3-6.2-4c-2.4-1.1-5.9-2.3-10.4-3.6
			c-6.5-2-11.8-4-16-6s-7.7-5-10.7-8.9c-3-3.9-4.5-9.1-4.5-15.4c0-9.4,3.4-16.8,10.2-22.1c6.8-5.3,15.7-8,26.6-8
			c11.1,0,20.1,2.7,26.9,8c6.8,5.3,10.5,12.7,10.9,22.2H49c-0.2-3.3-1.4-5.8-3.6-7.7c-2.2-1.9-5-2.8-8.5-2.8c-3,0-5.4,0.8-7.2,2.4
			c-1.8,1.6-2.7,3.9-2.7,6.8c0,3.3,1.5,5.8,4.6,7.6c3.1,1.8,7.9,3.8,14.4,5.9c6.5,2.2,11.8,4.3,15.9,6.3c4.1,2,7.6,4.9,10.6,8.8
			c3,3.8,4.5,8.8,4.5,14.8c0,5.8-1.5,11-4.4,15.7c-2.9,4.7-7.2,8.4-12.7,11.2c-5.6,2.8-12.1,4.2-19.7,4.2
			C32.7,394.7,26,393.5,20.2,391.1z"/>
		<path d="M154.9,375.8h-37.7l-6,17.8H85.4l36.6-101h28.5l36.6,101h-26L154.9,375.8z M148.6,356.8l-12.5-37l-12.4,37H148.6z"/>
		<path d="M288.4,393.7h-24.6l-41.2-62.3v62.3h-24.6v-101h24.6l41.2,62.6v-62.6h24.6V393.7z"/>
		<path class="st0" d="M399.8,393.7l-24.9-42h-18.6v42h-10.1V293.1h30.2c11.2,0,19.7,2.7,25.5,8.1c5.8,5.4,8.7,12.4,8.7,21.2
			c0,7.3-2.1,13.5-6.3,18.6c-4.2,5.1-10.3,8.5-18.5,10l25.9,42.7H399.8z M356.4,343.4h20.3c7.9,0,13.8-1.9,17.8-5.8
			c4-3.8,6-9,6-15.4c0-6.6-1.9-11.7-5.8-15.3c-3.8-3.6-9.9-5.4-18.1-5.4h-20.1V343.4z"/>
		<path class="st0" d="M450.6,388.1c-7.6-4.4-13.6-10.5-17.9-18.3c-4.4-7.8-6.5-16.7-6.5-26.6s2.2-18.7,6.5-26.6
			c4.4-7.8,10.3-13.9,17.9-18.3c7.6-4.4,16-6.6,25.3-6.6c9.4,0,17.9,2.2,25.5,6.6c7.6,4.4,13.5,10.5,17.8,18.3
			c4.3,7.8,6.5,16.7,6.5,26.6s-2.2,18.7-6.5,26.6c-4.3,7.8-10.3,13.9-17.8,18.3c-7.6,4.4-16.1,6.5-25.5,6.5
			C466.7,394.7,458.2,392.5,450.6,388.1z M496.1,380.7c5.9-3.5,10.7-8.4,14.1-14.9c3.5-6.5,5.2-14,5.2-22.5c0-8.5-1.7-16-5.2-22.5
			c-3.5-6.4-8.2-11.4-14.1-14.8c-5.9-3.5-12.7-5.2-20.1-5.2c-7.5,0-14.2,1.7-20.1,5.2c-6,3.5-10.7,8.4-14.1,14.8
			c-3.5,6.4-5.2,13.9-5.2,22.5c0,8.5,1.7,16,5.2,22.5c3.5,6.5,8.2,11.4,14.1,14.9c5.9,3.5,12.7,5.2,20.1,5.2
			C483.5,385.9,490.2,384.2,496.1,380.7z"/>
		<path class="st0" d="M610.7,293.1l-32.2,61.5v39.1h-10.1v-39.1l-32.5-61.5h11.4l26.2,52.2l26-52.2H610.7z"/>
		<path class="st0" d="M683.6,369.8h-45.8l-8.8,23.9h-10.7l36.7-99.3h11.4l36.6,99.3h-10.7L683.6,369.8z M680.6,361.4L660.8,307
			l-19.9,54.4H680.6z"/>
		<path class="st0" d="M729.3,385.5h36.1v8.2h-46.2V293.1h10.1V385.5z"/>
	</g>
	<g>
		<path d="M46.2,468.2h16.7v3.8H41.5v-46.6h4.7V468.2z"/>
		<path d="M69.5,427.7c-0.7-0.7-1-1.5-1-2.5c0-1,0.3-1.8,1-2.4c0.7-0.6,1.5-1,2.4-1s1.7,0.3,2.4,1c0.7,0.6,1,1.5,1,2.4
			c0,1-0.3,1.8-1,2.5c-0.7,0.7-1.5,1-2.4,1S70.2,428.3,69.5,427.7z M74.3,435.5V472h-4.7v-36.4H74.3z"/>
		<path d="M97.8,467.4l12.3-31.9h4.9L100.4,472h-5.3l-14.6-36.4h5L97.8,467.4z"/>
		<path d="M154.2,455.6h-30.2c0.1,2.8,0.8,5.1,2,7.1c1.2,2,2.8,3.4,4.7,4.4c2,1,4.1,1.5,6.4,1.5c3,0,5.6-0.7,7.6-2.2
			c2.1-1.5,3.4-3.4,4.1-5.9h4.9c-0.9,3.6-2.8,6.5-5.7,8.7c-2.9,2.2-6.6,3.4-11,3.4c-3.4,0-6.5-0.8-9.2-2.3c-2.7-1.5-4.8-3.7-6.4-6.5
			c-1.5-2.8-2.3-6.1-2.3-9.9c0-3.8,0.8-7.1,2.3-9.9c1.5-2.8,3.6-5,6.3-6.5c2.7-1.5,5.8-2.3,9.3-2.3s6.5,0.8,9.1,2.3
			c2.6,1.5,4.6,3.5,6,6.1c1.4,2.6,2.1,5.4,2.1,8.5C154.3,453.5,154.2,454.7,154.2,455.6z M147.9,444.8c-1.1-1.9-2.7-3.4-4.6-4.3
			c-2-1-4.1-1.5-6.4-1.5c-3.5,0-6.4,1.1-8.9,3.3c-2.4,2.2-3.8,5.4-4.1,9.4h25.6C149.6,449,149.1,446.7,147.9,444.8z"/>
		<path d="M185.8,422.6V472h-4.7v-49.4H185.8z"/>
		<path d="M196.3,427.7c-0.7-0.7-1-1.5-1-2.5c0-1,0.3-1.8,1-2.4c0.7-0.6,1.5-1,2.4-1c0.9,0,1.7,0.3,2.4,1c0.7,0.6,1,1.5,1,2.4
			c0,1-0.3,1.8-1,2.5c-0.7,0.7-1.5,1-2.4,1C197.8,428.7,197,428.3,196.3,427.7z M201,435.5V472h-4.7v-36.4H201z"/>
		<path d="M226,439.5h-8.5V472h-4.7v-32.5h-5.1v-3.9h5.1V433c0-4,1-6.9,3-8.7c2-1.9,5.3-2.8,9.8-2.8v4c-3,0-5.1,0.6-6.4,1.7
			c-1.2,1.2-1.8,3.1-1.8,5.8v2.5h8.5V439.5z"/>
		<path d="M266.1,455.6h-30.2c0.1,2.8,0.8,5.1,2,7.1c1.2,2,2.8,3.4,4.7,4.4c2,1,4.1,1.5,6.4,1.5c3,0,5.6-0.7,7.6-2.2
			c2.1-1.5,3.4-3.4,4.1-5.9h4.9c-0.9,3.6-2.8,6.5-5.7,8.7c-2.9,2.2-6.6,3.4-11,3.4c-3.4,0-6.5-0.8-9.2-2.3c-2.7-1.5-4.8-3.7-6.4-6.5
			c-1.5-2.8-2.3-6.1-2.3-9.9c0-3.8,0.8-7.1,2.3-9.9c1.5-2.8,3.6-5,6.3-6.5c2.7-1.5,5.8-2.3,9.3-2.3c3.5,0,6.5,0.8,9.1,2.3
			c2.6,1.5,4.6,3.5,6,6.1c1.4,2.6,2.1,5.4,2.1,8.5C266.3,453.5,266.2,454.7,266.1,455.6z M259.9,444.8c-1.1-1.9-2.7-3.4-4.6-4.3
			c-2-1-4.1-1.5-6.4-1.5c-3.5,0-6.4,1.1-8.9,3.3c-2.4,2.2-3.8,5.4-4.1,9.4h25.6C261.6,449,261,446.7,259.9,444.8z"/>
		<path d="M302.5,436.8c2.1-1.2,4.7-1.9,7.8-1.9v4.9H309c-3.4,0-6.1,0.9-8.1,2.7c-2,1.8-3.1,4.9-3.1,9.1V472h-4.7v-36.4h4.7v6.5
			C298.8,439.8,300.4,438,302.5,436.8z"/>
		<path d="M323.9,470.2c-2.7-1.5-4.9-3.7-6.5-6.5c-1.6-2.8-2.4-6.1-2.4-9.9c0-3.8,0.8-7.1,2.4-9.9c1.6-2.8,3.8-5,6.5-6.5
			c2.8-1.5,5.8-2.3,9.3-2.3c3.4,0,6.5,0.8,9.3,2.3c2.8,1.5,5,3.7,6.5,6.5c1.6,2.8,2.4,6.1,2.4,9.9c0,3.7-0.8,7-2.4,9.9
			c-1.6,2.8-3.8,5-6.6,6.6c-2.8,1.5-5.9,2.3-9.3,2.3C329.8,472.5,326.7,471.7,323.9,470.2z M339.8,466.8c2-1.1,3.7-2.7,5-4.9
			c1.3-2.2,1.9-4.9,1.9-8.1c0-3.2-0.6-5.9-1.9-8.1c-1.2-2.2-2.9-3.8-4.9-4.9c-2-1.1-4.3-1.6-6.7-1.6c-2.4,0-4.6,0.5-6.7,1.6
			c-2,1.1-3.7,2.7-4.9,4.9c-1.2,2.2-1.8,4.9-1.8,8.1c0,3.2,0.6,5.9,1.8,8.1c1.2,2.2,2.8,3.8,4.9,4.9c2,1.1,4.2,1.6,6.6,1.6
			C335.6,468.4,337.8,467.9,339.8,466.8z"/>
		<path d="M390.1,435.5l-21.6,53.6h-4.9l7.1-17.3l-14.9-36.2h5.1l12.4,31.1l12-31.1H390.1z"/>
		<path d="M396.5,443.9c1.5-2.8,3.6-5,6.2-6.5c2.6-1.5,5.6-2.3,9-2.3c3.5,0,6.5,0.8,9,2.4c2.5,1.6,4.3,3.6,5.4,6.1v-8h4.7V472h-4.7
			v-8.1c-1.2,2.5-3,4.5-5.5,6.2c-2.5,1.6-5.5,2.4-9,2.4c-3.3,0-6.3-0.8-8.9-2.3c-2.6-1.6-4.7-3.8-6.2-6.6c-1.5-2.8-2.2-6.1-2.2-9.9
			C394.3,450,395,446.7,396.5,443.9z M424.3,446c-1.2-2.2-2.8-3.9-4.9-5.1c-2.1-1.2-4.3-1.8-6.8-1.8c-2.6,0-4.9,0.6-6.9,1.7
			c-2,1.2-3.7,2.8-4.8,5c-1.2,2.2-1.8,4.8-1.8,7.8c0,3,0.6,5.6,1.8,7.8c1.2,2.2,2.8,4,4.8,5.1c2,1.2,4.4,1.8,6.9,1.8
			c2.5,0,4.8-0.6,6.8-1.8c2.1-1.2,3.7-2.9,4.9-5.1c1.2-2.2,1.8-4.8,1.8-7.7C426.1,450.8,425.5,448.2,424.3,446z"/>
		<path d="M446.1,422.6V472h-4.7v-49.4H446.1z"/>
		<path d="M461.4,422.6V472h-4.7v-49.4H461.4z"/>
		<path d="M502,435.5l-21.6,53.6h-4.9l7.1-17.3l-14.9-36.2h5.1l12.4,31.1l12-31.1H502z"/>
		<path d="M526.7,443.9c1.5-2.8,3.6-5,6.2-6.5s5.6-2.3,9-2.3c3.5,0,6.5,0.8,9,2.4c2.5,1.6,4.3,3.6,5.4,6.1v-8h4.7V472h-4.7v-8.1
			c-1.2,2.5-3,4.5-5.5,6.2c-2.5,1.6-5.5,2.4-9,2.4c-3.3,0-6.3-0.8-8.9-2.3c-2.6-1.6-4.7-3.8-6.2-6.6c-1.5-2.8-2.2-6.1-2.2-9.9
			C524.5,450,525.2,446.7,526.7,443.9z M554.5,446c-1.2-2.2-2.8-3.9-4.9-5.1c-2.1-1.2-4.3-1.8-6.8-1.8c-2.6,0-4.9,0.6-6.9,1.7
			c-2,1.2-3.7,2.8-4.8,5c-1.2,2.2-1.8,4.8-1.8,7.8c0,3,0.6,5.6,1.8,7.8c1.2,2.2,2.8,4,4.8,5.1c2,1.2,4.4,1.8,6.9,1.8
			c2.5,0,4.8-0.6,6.8-1.8c2.1-1.2,3.7-2.9,4.9-5.1c1.2-2.2,1.8-4.8,1.8-7.7C556.3,450.8,555.7,448.2,554.5,446z"/>
		<path d="M577.7,439.5v22.6c0,2.2,0.4,3.8,1.3,4.6c0.8,0.8,2.3,1.3,4.5,1.3h4.3v4h-5c-3.3,0-5.7-0.8-7.3-2.3
			c-1.6-1.5-2.4-4.1-2.4-7.6v-22.6h-5.1v-3.9h5.1v-9.1h4.7v9.1h10v3.9H577.7z"/>
		<path d="M616,469.6c-2.6-1.9-4.1-4.6-4.4-7.9h4.8c0.2,2,1.2,3.7,2.9,5c1.7,1.3,4,1.9,6.9,1.9c2.5,0,4.5-0.6,6-1.8
			c1.4-1.2,2.2-2.7,2.2-4.5c0-1.2-0.4-2.3-1.2-3.1c-0.8-0.8-1.8-1.4-3-1.9c-1.2-0.5-2.9-1-5-1.5c-2.7-0.7-4.9-1.4-6.6-2.1
			c-1.7-0.7-3.1-1.8-4.3-3.2c-1.2-1.4-1.8-3.3-1.8-5.6c0-1.8,0.5-3.4,1.6-4.9c1.1-1.5,2.6-2.7,4.5-3.6c2-0.9,4.2-1.3,6.7-1.3
			c3.9,0,7.1,1,9.5,3c2.4,2,3.7,4.7,3.9,8.2h-4.7c-0.1-2.1-1-3.9-2.5-5.2c-1.5-1.3-3.6-2-6.3-2c-2.4,0-4.3,0.6-5.7,1.7
			c-1.5,1.1-2.2,2.5-2.2,4.1c0,1.4,0.4,2.6,1.3,3.5c0.9,0.9,1.9,1.6,3.2,2.1c1.3,0.5,3,1.1,5.2,1.7c2.6,0.7,4.7,1.4,6.3,2.1
			c1.6,0.7,2.9,1.6,4,2.9c1.1,1.3,1.7,3,1.7,5.1c0,2-0.5,3.7-1.6,5.2c-1.1,1.5-2.6,2.7-4.5,3.6c-1.9,0.9-4.1,1.3-6.6,1.3
			C622,472.5,618.6,471.5,616,469.6z"/>
		<path d="M680.5,455.6h-30.2c0.1,2.8,0.8,5.1,2,7.1c1.2,2,2.8,3.4,4.7,4.4c2,1,4.1,1.5,6.4,1.5c3,0,5.6-0.7,7.6-2.2
			c2.1-1.5,3.4-3.4,4.1-5.9h4.9c-0.9,3.6-2.8,6.5-5.7,8.7c-2.9,2.2-6.6,3.4-11,3.4c-3.4,0-6.5-0.8-9.2-2.3c-2.7-1.5-4.8-3.7-6.4-6.5
			c-1.5-2.8-2.3-6.1-2.3-9.9c0-3.8,0.8-7.1,2.3-9.9c1.5-2.8,3.6-5,6.3-6.5c2.7-1.5,5.8-2.3,9.3-2.3c3.5,0,6.5,0.8,9.1,2.3
			c2.6,1.5,4.6,3.5,6,6.1c1.4,2.6,2.1,5.4,2.1,8.5C680.6,453.5,680.6,454.7,680.5,455.6z M674.3,444.8c-1.1-1.9-2.7-3.4-4.6-4.3
			c-2-1-4.1-1.5-6.4-1.5c-3.5,0-6.4,1.1-8.9,3.3c-2.4,2.2-3.8,5.4-4.1,9.4h25.6C675.9,449,675.4,446.7,674.3,444.8z"/>
		<path d="M689.3,443.9c1.5-2.8,3.6-5,6.2-6.5c2.6-1.5,5.6-2.3,9-2.3c3.5,0,6.5,0.8,9,2.4c2.5,1.6,4.3,3.6,5.4,6.1v-8h4.7V472h-4.7
			v-8.1c-1.2,2.5-3,4.5-5.5,6.2c-2.5,1.6-5.5,2.4-9,2.4c-3.3,0-6.3-0.8-8.9-2.3c-2.6-1.6-4.7-3.8-6.2-6.6c-1.5-2.8-2.2-6.1-2.2-9.9
			C687,450,687.8,446.7,689.3,443.9z M717,446c-1.2-2.2-2.8-3.9-4.9-5.1c-2.1-1.2-4.3-1.8-6.8-1.8c-2.6,0-4.9,0.6-6.9,1.7
			c-2,1.2-3.7,2.8-4.8,5c-1.2,2.2-1.8,4.8-1.8,7.8c0,3,0.6,5.6,1.8,7.8c1.2,2.2,2.8,4,4.8,5.1c2,1.2,4.4,1.8,6.9,1.8
			c2.5,0,4.8-0.6,6.8-1.8c2.1-1.2,3.7-2.9,4.9-5.1c1.2-2.2,1.8-4.8,1.8-7.7C718.8,450.8,718.2,448.2,717,446z"/>
	</g>
	<path class="st2" d="M532.4,107.4c-11.7,8.3-22.6,17.6-32.5,27.8c-9.9,10.2-18.8,21.5-24.6,34.4c-0.3,0.6-1,1-1.6,0.9l-0.1,0
		c-15.3-2.2-31.2-2-46.9-1.4c-15.7,0.7-31.4,1.7-47.1,3.4c-15.7,1.6-31.3,3.7-46.9,5.8l-23.4,3.5l-23.4,3.8l23.1-5.1
		c7.7-1.6,15.5-3,23.3-4.5l23.4-3.8c7.8-1.1,15.7-2.2,23.5-3c15.7-1.8,31.5-3.2,47.3-3.7c15.9-0.4,31.7-0.5,47.6,2l-1.7,0.9
		c6.4-13.2,15.8-24.4,26.1-34.4c5.2-5,10.6-9.7,16.3-14.1C520.4,115.3,526.2,111.2,532.4,107.4z"/>
</g>
</svg>
